<svg xmlns="http://www.w3.org/2000/svg" xmlns:xlink="http://www.w3.org/1999/xlink" width="106" height="22" viewBox="0 0 106 22">
    <defs>
        <linearGradient id="ybeycutfeb" x1="42.11%" x2="60.41%" y1="50.05%" y2="50.05%">
            <stop offset="0%" stop-color="#FF6E08"/>
            <stop offset="100%" stop-color="#FF6900"/>
        </linearGradient>
        <linearGradient id="11p8wpkz4e" x1="-.812%" x2="98.114%" y1="50%" y2="50%">
            <stop offset="0%" stop-color="#FF6E08"/>
            <stop offset="100%" stop-color="#FF6900"/>
        </linearGradient>
        <linearGradient id="z1poworgjh" x1=".398%" x2="100.016%" y1="50.004%" y2="50.004%">
            <stop offset="0%" stop-color="#FF6E08"/>
            <stop offset="100%" stop-color="#FF6900"/>
        </linearGradient>
        <linearGradient id="q1hszl5tkk" x1=".495%" x2="100.106%" y1="50%" y2="50%">
            <stop offset="0%" stop-color="#FF6E08"/>
            <stop offset="100%" stop-color="#FF6900"/>
        </linearGradient>
        <path id="mgc8pk9bsa" d="M1.1.9c.1-.2.2-.4.2-.6V.199L1.1.9z"/>
        <path id="ijt2d1q3kd" d="M.4.8c-.2 0-.699.5.1 1.5.299.4.7.7 1.2.7s.9-.3 1.2-.7c0 0 .8-1 .3-1.5C2.9.5 2.4.3 1.799.3 1.2.3.6.5.4.8"/>
        <path id="rilkk6h1eg" d="M7.2.5C3.3.5.201 3.6.201 7.5c0 .499 0 .9.099 1.301C.6 6.3 2.7 4.4 5.3 4.4c2.8 0 4.999 2.2 4.999 5 0 2.5-1.799 4.5-4.099 4.9.3 0 .7.099 1 .099 3.9 0 7-3.099 7-6.999 0-3.8-3.1-6.9-7-6.9z"/>
        <path id="93ah349emj" d="M7 .5c-3.9 0-7 3.1-7 7s3.1 7 7 7c.4-.101.7-.101 1.1-.101C5.8 14.001 4 11.9 4 9.5c0-2.8 2.2-5 5-5 2.5 0 4.6 1.9 5 4.4V7.5c0-3.9-3.1-7-7-7z"/>
    </defs>
    <g fill="none" fill-rule="evenodd">
        <g>
            <g>
                <g>
                    <g fill="#FFF">
                        <path d="M17.4 6.3c.3-1.9 1.5-2.8 3.5-2.8 2.1 0 3.3.9 3.5 2.8h-7zM20.9.9c-4.2 0-6.2 2.2-6.2 6.7 0 4.4 2.1 6.7 6.2 6.7h6.2v-2.6h-6.2c-2.1 0-3.3-.9-3.5-2.8h9.8V7.6C27.1 3.1 25.1.9 20.9.9zM37.8 10.6c-.6.7-1.6 1.1-2.9 1.1h-3.6V7.6c0-1.4.2-2.3.7-3 .6-.8 1.5-1.1 2.9-1.1s2.4.4 2.9 1.1c.5.6.7 1.6.7 3-.1 1.3-.3 2.3-.7 3m-3-9.7c-4.1 0-6.2 2.2-6.2 6.7v12.3h2.6v-5.6h3.6c4.2 0 6.2-2.2 6.2-6.7.1-4.4-2-6.7-6.2-6.7M51.7 10.6c-.6.7-1.6 1.1-2.9 1.1h-3.6V7.6c0-1.4.2-2.3.7-3 .6-.8 1.5-1.1 2.9-1.1s2.4.4 2.9 1.1c.5.6.7 1.6.7 3 0 1.3-.3 2.3-.7 3m-3-9.7c-4.1 0-6.2 2.2-6.2 6.7v12.3h2.6v-5.6h3.6c4.2 0 6.2-2.2 6.2-6.7.1-4.4-2-6.7-6.2-6.7M10.6 7.6c0 1.4-.2 2.3-.7 2.9-.6.7-1.5 1.1-2.9 1.1s-2.4-.4-2.9-1.1c-.5-.6-.7-1.6-.7-2.9V1H.8v6.6c0 4.4 2.1 6.7 6.2 6.7 4.2 0 6.2-2.2 6.2-6.7V1h-2.6v6.6zM66.3 1v6.6c0 1.4-.2 2.3-.7 2.9-.6.7-1.5 1.1-2.9 1.1s-2.4-.4-2.9-1.1c-.5-.6-.7-1.6-.7-2.9V1h-2.6v6.6c0 4 1.7 6.2 5 6.6-.1.9-.3 1.6-.6 2.1-.6.7-1.5 1.1-2.9 1.1V20c3.9 0 6-1.9 6.2-5.8 3.2-.5 4.8-2.7 4.8-6.6V1h-2.7z" transform="translate(-1168 -4375) translate(0 3673) translate(1168 702) translate(37 1.5)"/>
                    </g>
                    <g transform="translate(-1168 -4375) translate(0 3673) translate(1168 702) translate(17 15.5)">
                        <mask id="hfh2ly4twc" fill="#fff">
                            <use xlink:href="#mgc8pk9bsa"/>
                        </mask>
                        <path fill="url(#ybeycutfeb)" d="M1.1.9c.1-.2.2-.4.2-.6V.199L1.1.9z" mask="url(#hfh2ly4twc)"/>
                    </g>
                    <g transform="translate(-1168 -4375) translate(0 3673) translate(1168 702) translate(15 14.5)">
                        <mask id="3sevbm37vf" fill="#fff">
                            <use xlink:href="#ijt2d1q3kd"/>
                        </mask>
                        <path fill="url(#11p8wpkz4e)" d="M.4.8c-.2 0-.699.5.1 1.5.299.4.7.7 1.2.7s.9-.3 1.2-.7c0 0 .8-1 .3-1.5C2.9.5 2.4.3 1.799.3 1.2.3.6.5.4.8" mask="url(#3sevbm37vf)"/>
                    </g>
                    <g transform="translate(-1168 -4375) translate(0 3673) translate(1168 702) translate(19 .5)">
                        <mask id="ui76uh9wki" fill="#fff">
                            <use xlink:href="#rilkk6h1eg"/>
                        </mask>
                        <path fill="url(#z1poworgjh)" d="M7.2.5C3.3.5.201 3.6.201 7.5c0 .499 0 .9.099 1.301C.6 6.3 2.7 4.4 5.3 4.4c2.8 0 4.999 2.2 4.999 5 0 2.5-1.799 4.5-4.099 4.9.3 0 .7.099 1 .099 3.9 0 7-3.099 7-6.999 0-3.8-3.1-6.9-7-6.9z" mask="url(#ui76uh9wki)"/>
                    </g>
                    <g transform="translate(-1168 -4375) translate(0 3673) translate(1168 702) translate(0 .5)">
                        <mask id="rdupamshul" fill="#fff">
                            <use xlink:href="#93ah349emj"/>
                        </mask>
                        <path fill="url(#q1hszl5tkk)" d="M7 .5c-3.9 0-7 3.1-7 7s3.1 7 7 7c.4-.101.7-.101 1.1-.101C5.8 14.001 4 11.9 4 9.5c0-2.8 2.2-5 5-5 2.5 0 4.6 1.9 5 4.4V7.5c0-3.9-3.1-7-7-7z" mask="url(#rdupamshul)"/>
                    </g>
                </g>
            </g>
        </g>
    </g>
</svg>
