<svg xmlns="http://www.w3.org/2000/svg" xmlns:xlink="http://www.w3.org/1999/xlink" width="224" height="58" viewBox="0 0 224 58">
    <defs>
        <path id="khsl785i5a" d="M0 56.66L224 56.66 224 0.192 0 0.192z"/>
    </defs>
    <g fill="none" fill-rule="evenodd">
        <g>
            <g>
                <g>
                    <g>
                        <path fill="#00AD21" d="M60.611 25.179L44.571 53.182 28.955 26.486 14.033 52.626 0.18 52.626 0.18 57.084 15.606 57.084 28.955 33.119 43.009 57.084 46.84 57.084 62.554 29.813 224 30 224 25.348z" transform="translate(-165 -5131) translate(0 5048) translate(165 83.35)"/>
                        <g transform="translate(-165 -5131) translate(0 5048) translate(165 83.35) translate(0 .424)">
                            <path fill="#FFF" d="M8.293 53.881c.18 0 .357-.307.533-.307-.18 0-.358.307-.533.307"/>
                            <path d="M14.754 33.582L24.663 33.582"/>
                            <path stroke="#000" stroke-width=".5" d="M54.035 31.641L42.364 31.641M10.503 43.648L16.826 33.569M12.208 46.012L19.484 33.569M4.255 31.641L25.771 31.641"/>
                            <path stroke="#FFF" stroke-width=".5" d="M12.62 4.565L15.077.346 19.709.346 22.48.346 24.389.346 28.953 8.728 33.387.346 35.617.346 38.597.346 43.161.346 45.662 4.565 47.115 7.016 48.131 8.728 44.091 16.956 53.268 16.956 54.228 18.705M45.815 45.718L43.124 50.281 28.953 26.065 15.2 50.158 9.491 42.243 14.757 33.585 5.457 33.566 4.256 31.639.179 25.098 2.507 21.027 3.831 18.705 4.835 16.95 14.708 16.956 10.113 8.882 10.994 7.367 12.62 4.571M43.475 33.566L48.131 41.776 47.115 43.5 45.816 45.712M54.235 18.705L55.509 21.028 57.751 25.098 52.941 33.566"/>
                            <path stroke="#FFF" stroke-width=".5" d="M43.161.346L33.479 16.956 32.457 18.705 31.108 21.028 28.965 24.698 26.717 20.756 25.418 18.477 24.334 16.574 15.077.346M14.708 16.956L15.73 18.705 17.097 21.027 19.481 25.098M44.091 16.956L41.584 16.956 38.598 16.956 33.48 16.956"/>
                            <path stroke="#FFF" stroke-width=".5" d="M28.953 8.728L28.257 9.91 26.717 12.522 24.334 16.574M57.751 25.098L38.598 25.098 36.781 25.098 34.046 25.098 28.965 25.098 28.953 25.098 24.334 25.098 21.285 25.098 19.481 25.098.179 25.098M52.941 33.566L43.475 33.566 38.598 25.098M12.62 4.565L12.62 4.571 24.334 25.098M10.994 7.367L21.285 25.098M26.717 12.522L19.709.346M22.48.346L28.072 9.806M35.616.346L25.418 18.477M38.598.346L26.717 20.756M45.661 4.565L38.597 16.956M47.115 7.016L41.585 16.956M54.235 18.705L54.228 18.705 32.457 18.705M55.509 21.027L31.108 21.027M36.781 25.098L47.115 43.5M34.046 25.098L45.815 45.712 45.815 45.717M2.507 21.027L17.097 21.027M3.831 18.705L15.73 18.705"/>
                            <path fill="#6FD543" d="M19.342 51.144L28.956 34.099 38.97 51.144 36.806 51.144 28.956 37.328 21.287 51.144z"/>
                            <path fill="#B4E82D" d="M21.942 51.144L28.965 38.609 36.307 51.144 34.33 51.144 28.965 41.808 23.765 51.144z"/>
                            <mask id="5qshal6gjb" fill="#fff">
                                <use xlink:href="#khsl785i5a"/>
                            </mask>
                            <path stroke="#FFF" stroke-width=".5" d="M55.21 29.388l-14.14.001 14.14-.001zM26.976 29.389L2.938 29.381M54.035 31.641L42.364 31.641 41.069 29.389M4.256 31.64L25.771 31.638M20.465 31.639L12.208 46.012M18.074 31.639L10.657 43.859" mask="url(#5qshal6gjb)"/>
                        </g>
                    </g>
                    <path fill="#FFF" d="M70.873 20.823c-1.46 0-2.62-.441-3.478-1.324-.86-.883-1.288-2.124-1.288-3.724 0-1.543.43-2.773 1.291-3.69.86-.919 2.021-1.378 3.482-1.378.387 0 .736.022 1.046.066.309.043.605.104.889.183.222.065.464.155.726.268.261.114.472.212.634.294v2.321h-.249c-.117-.104-.265-.229-.444-.375-.18-.147-.382-.29-.608-.429-.227-.14-.477-.258-.749-.356-.273-.098-.556-.147-.853-.147-.353 0-.677.055-.971.167-.294.11-.575.303-.84.578-.244.248-.444.585-.598 1.008-.155.421-.233.921-.233 1.497 0 .605.081 1.115.242 1.527.161.411.373.744.634.996.253.245.535.421.847.53.312.109.622.163.932.163.322 0 .63-.052.922-.16.291-.107.538-.225.74-.356.217-.135.409-.272.574-.412.166-.14.31-.263.432-.372h.222v2.288l-.621.285c-.235.107-.477.196-.726.27-.305.092-.59.161-.857.21-.265.048-.632.072-1.098.072M81.122 16.978c0-.436-.036-.798-.108-1.089-.072-.29-.171-.522-.297-.696-.136-.183-.288-.31-.458-.383-.17-.072-.364-.108-.583-.108-.205 0-.39.032-.555.096-.166.063-.318.183-.458.362-.13.17-.235.404-.314.7-.078.297-.117.67-.117 1.118 0 .449.037.812.111 1.09.074.276.17.497.287.663.122.17.275.294.458.372.183.079.386.118.608.118.184 0 .37-.04.56-.118.189-.078.34-.196.454-.353.135-.187.238-.413.307-.676.07-.265.105-.629.105-1.096m2.347-.013c0 1.208-.33 2.158-.99 2.855-.66.695-1.595 1.042-2.803 1.042-1.198 0-2.13-.347-2.794-1.042-.666-.697-.998-1.647-.998-2.855 0-1.22.332-2.176.998-2.867.664-.691 1.596-1.037 2.794-1.037 1.204 0 2.136.348 2.8 1.043.662.696.993 1.649.993 2.86M87.859 20.836c-.54 0-1.052-.059-1.533-.177-.482-.118-.88-.255-1.194-.411v-1.936h.19c.109.083.233.174.373.274.14.101.333.206.581.314.214.101.455.187.723.259.268.072.56.108.873.108.323 0 .607-.05.853-.151.246-.1.37-.259.37-.477 0-.17-.057-.298-.17-.386-.114-.087-.334-.17-.66-.248-.175-.044-.395-.09-.661-.141-.266-.05-.502-.108-.706-.173-.576-.18-1.008-.444-1.298-.795-.29-.35-.435-.811-.435-1.382 0-.327.075-.635.226-.926.15-.29.371-.548.664-.775.29-.222.652-.398 1.082-.529.428-.131.914-.197 1.454-.197.514 0 .988.052 1.419.154.432.103.796.226 1.092.37v1.857h-.183c-.078-.061-.203-.143-.373-.246-.17-.102-.335-.19-.497-.264-.191-.088-.406-.16-.643-.216-.239-.057-.482-.085-.73-.085-.33 0-.611.057-.84.17-.229.113-.343.264-.343.45 0 .167.056.298.17.393.113.096.36.19.738.281.197.049.422.095.677.141.256.046.501.108.736.187.527.17.928.419 1.2.748.272.33.409.766.409 1.311 0 .344-.081.673-.242.984-.162.311-.39.575-.687.788-.314.231-.683.41-1.108.536-.426.126-.934.19-1.527.19M96.263 20.777c-.933 0-1.612-.192-2.037-.575-.424-.384-.637-1.012-.637-1.884v-3.432h-.876V13.29h.876v-2.1h2.288v2.1h2.204v1.595h-2.204v2.602c0 .258.003.482.007.674.004.191.04.364.105.516.06.153.169.274.324.363.154.089.38.134.676.134.122 0 .282-.026.48-.078.199-.052.338-.1.416-.144h.196v1.615c-.248.065-.512.116-.79.154-.28.037-.623.055-1.028.055M104.884 15.455h-.19c-.087-.03-.214-.053-.38-.069-.165-.016-.348-.023-.548-.023-.24 0-.492.036-.755.105-.265.07-.52.152-.769.248v4.917h-2.289V13.29h2.29v1.053c.104-.095.249-.217.434-.363.185-.147.354-.262.507-.35.166-.1.358-.186.578-.258.22-.072.429-.108.625-.108.074 0 .157.003.248.007.092.004.174.01.249.02v2.164zM113.517 20.633h-2.288v-.81c-.397.33-.762.583-1.092.755-.332.172-.726.258-1.184.258-.728 0-1.295-.23-1.703-.69-.408-.46-.612-1.152-.612-2.076v-4.78h2.302v3.642c0 .38.01.689.03.928.02.24.066.443.14.609.07.153.177.268.324.346.145.08.35.118.612.118.16 0 .351-.039.571-.118.22-.078.425-.185.612-.32V13.29h2.288v7.342zM122.066 20.633L115.645 20.633 115.645 19.123 119.15 15.01 115.802 15.01 115.802 13.291 121.994 13.291 121.994 14.775 118.483 18.881 122.066 18.881zM124.187 20.634h2.288V13.29h-2.288v7.343zm-.066-8.39h2.42v-1.785h-2.42v1.785zM133.866 16.978c0-.436-.036-.798-.108-1.089-.072-.29-.17-.522-.297-.696-.135-.183-.288-.31-.458-.383-.17-.072-.364-.108-.582-.108-.205 0-.39.032-.556.096-.166.063-.318.183-.458.362-.13.17-.235.404-.314.7-.077.297-.117.67-.117 1.118 0 .449.037.812.112 1.09.073.276.17.497.287.663.122.17.275.294.457.372.184.079.386.118.609.118.183 0 .369-.04.559-.118.19-.078.34-.196.454-.353.135-.187.238-.413.308-.676.07-.265.104-.629.104-1.096m2.348-.013c0 1.208-.33 2.158-.991 2.855-.66.695-1.594 1.042-2.802 1.042-1.199 0-2.13-.347-2.795-1.042-.665-.697-.997-1.647-.997-2.855 0-1.22.332-2.176.997-2.867.665-.691 1.596-1.037 2.795-1.037 1.203 0 2.136.348 2.799 1.043.662.696.994 1.649.994 2.86M145.246 20.633h-2.302v-3.642c0-.296-.012-.592-.036-.886-.023-.294-.068-.511-.133-.65-.08-.167-.193-.285-.34-.357-.148-.072-.347-.108-.595-.108-.188 0-.378.036-.57.105-.191.07-.396.18-.614.333v5.205h-2.289v-7.342h2.29v.81c.373-.318.738-.566 1.094-.745.356-.18.749-.269 1.18-.269.75 0 1.323.237 1.72.71s.595 1.158.595 2.056v4.78zM147.877 20.634h2.288V13.29h-2.288v7.343zm-.066-8.39h2.42v-1.785h-2.42v1.785zM162.385 16.88l-.994-3.21-.994 3.21h1.988zm-5.584 3.753l3.289-9.735h2.667l3.29 9.735h-2.518l-.608-1.988h-3.06l-.608 1.988H156.8zM174.699 20.633h-2.302v-3.642c0-.296-.012-.592-.036-.886-.023-.294-.068-.511-.134-.65-.078-.167-.192-.285-.34-.357-.148-.072-.346-.108-.595-.108-.187 0-.377.036-.569.105-.191.07-.396.18-.614.333v5.205h-2.29v-7.342h2.29v.81c.375-.318.739-.566 1.095-.745.355-.18.749-.269 1.18-.269.75 0 1.323.237 1.72.71s.595 1.158.595 2.056v4.78zM180.142 20.777c-.933 0-1.612-.192-2.038-.575-.424-.384-.636-1.012-.636-1.884v-3.432h-.877V13.29h.877v-2.1h2.288v2.1h2.203v1.595h-2.203v2.602c0 .258.002.482.006.674.005.191.04.364.105.516.061.153.17.274.324.363.154.089.38.134.676.134.122 0 .282-.026.48-.078.2-.052.338-.1.416-.144h.196v1.615c-.248.065-.512.116-.79.154-.28.037-.622.055-1.027.055M190.88 16.965c0 1.208-.33 2.158-.99 2.855-.66.695-1.595 1.042-2.802 1.042-1.199 0-2.13-.347-2.795-1.042-.664-.697-.998-1.647-.998-2.855 0-1.22.334-2.176.998-2.867.665-.691 1.596-1.037 2.795-1.037 1.203 0 2.136.348 2.799 1.043.662.696.994 1.649.994 2.86" transform="translate(-165 -5131) translate(0 5048) translate(165 83.35)"/>
                    <path fill="#1A171B" d="M188.533 16.978c0-.436-.036-.798-.108-1.089-.072-.29-.17-.522-.297-.696-.136-.183-.288-.31-.458-.383-.17-.072-.364-.108-.582-.108-.205 0-.39.032-.556.096-.166.063-.318.183-.458.362-.13.17-.235.404-.314.7-.078.297-.117.67-.117 1.118 0 .449.037.812.111 1.09.075.276.17.497.288.663.122.17.275.294.457.372.184.079.386.118.609.118.183 0 .369-.04.559-.118.19-.078.34-.196.454-.353.135-.187.238-.413.308-.676.069-.265.104-.629.104-1.096" transform="translate(-165 -5131) translate(0 5048) translate(165 83.35)"/>
                    <path fill="#FFF" d="M199.913 20.633h-2.302v-3.642c0-.296-.012-.592-.036-.886-.023-.294-.068-.511-.134-.65-.078-.167-.192-.285-.34-.357-.147-.072-.346-.108-.594-.108-.188 0-.378.036-.57.105-.191.07-.396.18-.614.333v5.205h-2.289v-7.342h2.29v.81c.374-.318.738-.566 1.094-.745.356-.18.749-.269 1.18-.269.75 0 1.323.237 1.72.71s.595 1.158.595 2.056v4.78zM202.545 20.634h2.288V13.29h-2.288v7.343zm-.067-8.39h2.42v-1.785h-2.42v1.785zM212.224 16.978c0-.436-.036-.798-.108-1.089-.072-.29-.17-.522-.297-.696-.136-.183-.288-.31-.458-.383-.17-.072-.364-.108-.583-.108-.205 0-.389.032-.555.096-.166.063-.318.183-.458.362-.13.17-.235.404-.314.7-.078.297-.117.67-.117 1.118 0 .449.037.812.111 1.09.075.276.17.497.287.663.122.17.276.294.458.372.183.079.386.118.608.118.184 0 .37-.04.56-.118.189-.078.34-.196.454-.353.135-.187.238-.413.307-.676.07-.265.105-.629.105-1.096m2.347-.013c0 1.208-.33 2.158-.99 2.855-.66.695-1.595 1.042-2.803 1.042-1.198 0-2.13-.347-2.794-1.042-.665-.697-.998-1.647-.998-2.855 0-1.22.333-2.176.998-2.867.664-.691 1.596-1.037 2.794-1.037 1.204 0 2.136.348 2.8 1.043.662.696.993 1.649.993 2.86M216.725 20.634L219.013 20.634 219.013 10.46 216.725 10.46zM221.703 20.634h2.289V13.29h-2.289v7.343zm-.066-8.39h2.42v-1.785h-2.42v1.785z" transform="translate(-165 -5131) translate(0 5048) translate(165 83.35)"/>
                </g>
            </g>
        </g>
    </g>
</svg>
