<svg xmlns="http://www.w3.org/2000/svg" width="481" height="218" viewBox="0 0 481 218">
    <g fill="none" fill-rule="evenodd">
        <g>
            <g>
                <g>
                    <path fill="#F7F7F7" d="M240.942 96.298L177.178 203.398 115.103 101.296 55.785 201.271 0.715 201.271 0.715 218.322 62.036 218.322 115.103 126.664 170.972 218.322 186.197 218.322 248.666 114.02 481 114.737 481 96.944z" transform="translate(-959 -159) translate(0 56) translate(959 103)"/>
                    <g>
                        <path fill="#FFF" d="M32.965 205.073c.714 0 1.422-1.178 2.12-1.178-.715 0-1.423 1.178-2.12 1.178" transform="translate(-959 -159) translate(0 56) translate(959 103) translate(0 2.62)"/>
                        <path d="M58.652 127.436L98.039 127.436" transform="translate(-959 -159) translate(0 56) translate(959 103) translate(0 2.62)"/>
                        <path stroke="#000" stroke-width=".5" d="M214.801 120.013L168.408 120.013M41.75 165.935L66.886 127.388M48.53 174.975L77.451 127.387M16.914 120.013L102.445 120.013" transform="translate(-959 -159) translate(0 56) translate(959 103) translate(0 2.62)"/>
                        <path stroke="#FFF" stroke-width=".5" d="M50.167 16.458L59.935.323 78.346.323 89.363.323 96.952.323 115.094 32.381 132.721.323 141.583.323 153.433.323 171.574.323 181.514 16.458 187.292 25.833 191.331 32.381 175.271 63.85 211.749 63.85 215.569 70.539M182.126 173.85L171.427 191.303 115.093 98.687 60.425 190.832 37.73 160.563 58.662 127.447 21.694 127.377 16.92 120.004.712 94.989 9.967 79.42 15.23 70.54 19.221 63.827 58.466 63.85 40.202 32.968 43.703 27.176 50.167 16.482M172.823 127.376L191.332 158.774 187.292 165.369 182.126 173.827M215.594 70.539L220.662 79.421 229.573 94.989 210.453 127.376" transform="translate(-959 -159) translate(0 56) translate(959 103) translate(0 2.62)"/>
                        <path stroke="#FFF" stroke-width=".5" d="M171.574.323L133.088 63.849 129.024 70.539 123.662 79.421 115.142 93.46 106.206 78.382 101.04 69.667 96.731 62.389 59.935.323M58.466 63.85L62.531 70.54 67.966 79.42 77.44 94.989M175.271 63.85L165.307 63.85 153.433 63.85 133.088 63.85" transform="translate(-959 -159) translate(0 56) translate(959 103) translate(0 2.62)"/>
                        <path stroke="#FFF" stroke-width=".5" d="M115.094 32.38L112.327 36.903 106.207 46.89 96.732 62.389M229.573 94.988L153.433 94.988 146.211 94.988 135.341 94.988 115.143 94.988 115.094 94.988 96.732 94.988 84.614 94.988 77.44 94.988.713 94.988M210.452 127.376L172.823 127.376 153.433 94.988M50.167 16.458L50.167 16.482 96.732 94.989M43.703 27.176L84.613 94.989M106.207 46.89L78.346.323M89.363.323L111.593 36.503M141.583.323L101.04 69.667M153.433.323L106.207 78.382M181.514 16.458L153.433 63.85M187.292 25.833L165.307 63.85M215.594 70.539L215.569 70.539 129.025 70.539M220.661 79.42L123.663 79.42M146.211 94.988L187.292 165.369M135.34 94.988L182.126 173.827 182.126 173.849M9.967 79.42L67.966 79.42M15.231 70.539L62.53 70.539" transform="translate(-959 -159) translate(0 56) translate(959 103) translate(0 2.62)"/>
                        <path fill="#F7F7F7" d="M76.89 194.605L115.105 129.416 154.913 194.605 146.31 194.605 115.105 141.763 84.619 194.605z" opacity=".5" transform="translate(-959 -159) translate(0 56) translate(959 103) translate(0 2.62)"/>
                        <path fill="#F7F7F7" d="M87.224 194.605L115.143 146.662 144.326 194.605 136.467 194.605 115.143 158.899 94.473 194.605z" opacity=".2" transform="translate(-959 -159) translate(0 56) translate(959 103) translate(0 2.62)"/>
                        <path stroke="#FFF" stroke-width=".5" d="M219.473 111.396l-56.214.005 56.214-.005zM107.236 111.401L11.679 111.368M214.801 120.013L168.408 120.013 163.259 111.401M16.92 120.008L102.443 120.003M81.354 120.003L48.531 174.975M71.848 120.003L42.364 166.742" transform="translate(-959 -159) translate(0 56) translate(959 103) translate(0 2.62)"/>
                    </g>
                </g>
            </g>
        </g>
    </g>
</svg>
