<svg xmlns="http://www.w3.org/2000/svg" width="230" height="58" viewBox="0 0 230 58">
    <g fill="none" fill-rule="evenodd">
        <g>
            <g>
                <path fill="#00AD21" d="M61.143 25.4L44.962 53.648 29.209 26.718 14.156 53.087 0.181 53.087 0.181 57.585 15.742 57.585 29.209 33.409 43.387 57.585 47.25 57.585 63.103 30.074 225.965 30.263 225.965 25.724z" transform="translate(-825 -250) translate(825 250)"/>
                <g>
                    <path fill="#000" d="M8.903 54.044c-.181 0-.36.31-.538.31.182 0 .361-.31.538-.31z" transform="translate(-825 -250) translate(825 250) translate(0 .427)"/>
                    <path stroke="#000" stroke-width=".5" d="M14.884 33.876L24.879 33.876M54.509 31.918L42.736 31.918M10.595 44.031L16.973 33.864M12.315 46.415L19.654 33.864M4.292 31.918L25.997 31.918" transform="translate(-825 -250) translate(825 250) translate(0 .427)"/>
                    <g fill="#FFF">
                        <path d="M55.996 21.212L58.258 25.318 38.936 25.318 37.103 25.318 34.345 25.318 29.219 25.318 29.219 24.915 31.381 21.212zM58.258 25.318L53.406 33.861 43.857 33.861 38.936 25.318zM54.71 18.869L55.996 21.212 31.381 21.212 32.742 18.869 54.704 18.869zM53.735 17.105L54.704 18.869 32.742 18.869 33.773 17.105 38.936 17.105 41.949 17.105 44.478 17.105zM47.528 7.077L48.553 8.805 44.478 17.105 41.949 17.105z" transform="translate(-825 -250) translate(825 250) translate(0 .427)"/>
                        <path d="M43.857 33.861L48.553 42.142 47.528 43.882 37.103 25.318 38.936 25.318zM46.062 4.605L47.528 7.077 41.949 17.105 38.936 17.105z" transform="translate(-825 -250) translate(825 250) translate(0 .427)"/>
                        <path d="M37.103 25.318L47.528 43.882 46.217 46.113 34.345 25.318z" transform="translate(-825 -250) translate(825 250) translate(0 .427)"/>
                        <path d="M46.217 46.113L46.217 46.119 43.502 50.722 29.207 26.294 29.207 25.318 29.219 25.318 34.345 25.318zM43.54.349L46.062 4.605 38.936 17.105 33.773 17.105z" transform="translate(-825 -250) translate(825 250) translate(0 .427)"/>
                        <path d="M43.54 0.349L33.773 17.105 32.742 18.869 31.381 21.212 29.219 24.915 26.951 20.938 38.936 0.349z" transform="translate(-825 -250) translate(825 250) translate(0 .427)"/>
                        <path d="M38.936 0.349L26.952 20.938 25.641 18.639 35.929 0.349z" transform="translate(-825 -250) translate(825 250) translate(0 .427)"/>
                        <path d="M35.929 0.349L25.641 18.639 24.547 16.72 26.951 12.632 28.505 9.997 29.207 8.805 33.68 0.349z" transform="translate(-825 -250) translate(825 250) translate(0 .427)"/>
                        <path d="M29.219 24.915L29.219 25.318 29.207 25.318 24.547 25.318 12.731 4.611 12.731 4.605 15.21.349 24.547 16.72 25.641 18.639 26.952 20.938zM29.207 25.318L29.207 26.293 15.334 50.598 9.575 42.614 14.886 33.879 5.505 33.861 4.294 31.916.181 25.318 19.652 25.318 21.472 25.318 24.547 25.318zM24.603.349L29.207 8.805 28.505 9.997 28.318 9.892 22.677.349z" transform="translate(-825 -250) translate(825 250) translate(0 .427)"/>
                        <path d="M28.505 9.997L26.952 12.631 19.882.349 22.677.349 28.318 9.892zM26.952 12.632L24.547 16.72 15.21.349 19.882.349zM12.731 4.611L24.547 25.318 21.472 25.318 11.09 7.432z" transform="translate(-825 -250) translate(825 250) translate(0 .427)"/>
                        <path d="M11.09 7.432L21.472 25.318 19.652 25.318 17.247 21.212 15.868 18.869 14.837 17.105 10.202 8.959z" transform="translate(-825 -250) translate(825 250) translate(0 .427)"/>
                        <path d="M17.247 21.212L19.652 25.318.181 25.318 2.529 21.212zM17.247 21.212L2.529 21.212 3.865 18.869 15.868 18.869zM14.837 17.105L15.868 18.869 3.865 18.869 4.878 17.099z" transform="translate(-825 -250) translate(825 250) translate(0 .427)"/>
                    </g>
                    <path stroke="#000" stroke-width=".5" d="M12.731 4.605L15.21.349 19.881.349 22.677.349 24.603.349 29.207 8.805 33.68.349 35.929.349 38.936.349 43.54.349 46.062 4.605 47.528 7.077 48.553 8.805 44.478 17.105 53.735 17.105 54.704 18.869M46.217 46.119L43.502 50.722 29.207 26.294 15.334 50.598 9.574 42.614 14.886 33.879 5.505 33.861 4.294 31.916.181 25.318 2.529 21.212 3.865 18.869 4.878 17.099 14.837 17.105 10.202 8.959 11.09 7.432 12.731 4.611M43.857 33.861L48.553 42.142 47.528 43.882 46.217 46.113M54.71 18.869L55.996 21.212 58.258 25.318 53.406 33.861" transform="translate(-825 -250) translate(825 250) translate(0 .427)"/>
                    <path stroke="#000" stroke-width=".5" d="M43.54.349L33.773 17.105 32.742 18.869 31.381 21.212 29.219 24.915 26.951 20.938 25.641 18.639 24.547 16.72 15.209.349M14.837 17.105L15.868 18.869 17.247 21.212 19.652 25.318M44.478 17.105L41.949 17.105 38.936 17.105 33.773 17.105" transform="translate(-825 -250) translate(825 250) translate(0 .427)"/>
                    <path stroke="#000" stroke-width=".5" d="M29.207 8.804L28.505 9.997 26.952 12.632 24.547 16.72M58.258 25.318L38.936 25.318 37.103 25.318 34.345 25.318 29.219 25.318 29.207 25.318 24.547 25.318 21.472 25.318 19.652 25.318.181 25.318M53.406 33.861L43.857 33.861 38.936 25.318M12.731 4.605L12.731 4.611 24.547 25.318M11.09 7.432L21.472 25.318M26.952 12.632L19.882.349M22.677.349L28.319 9.892M35.929.349L25.641 18.639M38.936.349L26.952 20.938M46.062 4.605L38.936 17.105M47.528 7.077L41.949 17.105M54.71 18.869L54.704 18.869 32.742 18.869M55.996 21.212L31.381 21.212M37.103 25.318L47.528 43.882M34.345 25.318L46.217 46.113 46.217 46.118M2.529 21.212L17.247 21.212M3.865 18.869L15.868 18.869" transform="translate(-825 -250) translate(825 250) translate(0 .427)"/>
                    <path fill="#6FD543" d="M19.512 51.593L29.21 34.399 39.312 51.593 37.128 51.593 29.21 37.655 21.474 51.593z" transform="translate(-825 -250) translate(825 250) translate(0 .427)"/>
                    <path fill="#B4E82D" d="M22.134 51.593L29.219 38.948 36.625 51.593 34.631 51.593 29.219 42.175 23.974 51.593z" transform="translate(-825 -250) translate(825 250) translate(0 .427)"/>
                    <path stroke="#000" stroke-width=".5" d="M55.695 29.646l-14.265.001 14.265-.001zM27.213 29.647L2.964 29.638M54.509 31.918L42.736 31.918 41.43 29.647M4.294 31.917L25.997 31.916M20.645 31.916L12.315 46.415M18.233 31.916L10.751 44.244" transform="translate(-825 -250) translate(825 250) translate(0 .427)"/>
                </g>
                <g fill="#000">
                    <path d="M4.808 10.455c-1.473 0-2.642-.445-3.509-1.336C.432 8.23 0 6.977 0 5.363 0 3.806.434 2.565 1.303 1.64 2.17.714 3.342.25 4.815.25c.39 0 .743.023 1.055.067.312.044.61.105.897.185.225.066.469.156.733.27.263.115.476.213.639.297V3.41h-.25c-.119-.105-.268-.231-.45-.379-.18-.148-.384-.291-.612-.432-.229-.141-.481-.26-.756-.359-.275-.1-.561-.149-.86-.149-.356 0-.683.056-.98.169-.297.112-.58.306-.847.583-.247.25-.448.59-.604 1.016-.156.426-.234.93-.234 1.51 0 .611.081 1.126.244 1.54.163.416.376.751.64 1.006.255.247.539.425.854.535.314.11.627.165.94.165.325 0 .635-.054.93-.162.294-.108.543-.228.746-.36.22-.135.412-.274.58-.415.167-.14.312-.266.435-.376h.224v2.309l-.626.287c-.238.108-.482.198-.732.273-.309.092-.597.163-.865.211-.268.049-.637.073-1.108.073M15.147 6.577c0-.44-.037-.806-.11-1.099-.072-.292-.171-.527-.299-.702-.137-.185-.29-.313-.462-.386-.171-.073-.367-.109-.587-.109-.207 0-.394.032-.56.096-.168.064-.322.185-.463.366-.131.171-.237.407-.316.706-.079.3-.119.675-.119 1.128 0 .452.038.819.113 1.098.074.28.171.502.29.67.123.171.277.296.461.375.185.08.39.12.614.12.185 0 .372-.04.564-.12.19-.079.344-.197.458-.356.136-.188.24-.416.31-.682.07-.267.106-.634.106-1.105m2.368-.014c0 1.218-.333 2.178-1 2.88-.666.702-1.608 1.052-2.826 1.052-1.21 0-2.15-.35-2.82-1.052-.67-.702-1.006-1.662-1.006-2.88 0-1.23.335-2.195 1.007-2.892.67-.697 1.61-1.046 2.819-1.046 1.214 0 2.154.35 2.823 1.052.669.702 1.003 1.664 1.003 2.886M21.943 10.468c-.545 0-1.061-.059-1.547-.178s-.887-.257-1.204-.415V7.922h.192c.11.083.235.175.376.277.14.102.336.207.587.316.215.103.458.189.73.261.27.073.563.11.88.11.325 0 .612-.051.86-.153.248-.101.373-.26.373-.481 0-.171-.057-.3-.172-.39-.114-.087-.336-.17-.666-.25-.176-.044-.398-.091-.666-.142-.269-.05-.506-.109-.712-.175-.58-.18-1.017-.447-1.31-.8-.293-.355-.439-.82-.439-1.396 0-.33.076-.64.228-.933.152-.293.375-.553.67-.782.294-.224.658-.402 1.092-.534.432-.132.922-.198 1.467-.198.518 0 .996.052 1.431.155.436.103.803.227 1.102.372v1.874h-.185c-.079-.062-.204-.144-.376-.247-.171-.103-.338-.193-.501-.267-.194-.089-.41-.161-.65-.218-.24-.057-.485-.086-.735-.086-.334 0-.617.057-.848.171-.23.115-.346.267-.346.455 0 .168.057.3.172.396.114.097.362.192.744.284.199.049.426.095.683.142.258.046.505.109.742.188.532.171.936.423 1.211.755.275.333.412.772.412 1.323 0 .347-.082.678-.244.992-.163.314-.394.58-.693.795-.317.233-.689.413-1.118.54-.429.128-.942.192-1.54.192M30.421 10.409c-.941 0-1.626-.193-2.055-.58-.428-.388-.642-1.02-.642-1.9V4.465h-.884v-1.61h.884V.74h2.308v2.118h2.223v1.609h-2.223V7.09c0 .26.003.486.007.68.004.193.04.367.105.52.062.155.17.277.327.367.155.09.383.135.682.135.123 0 .285-.026.485-.08.2-.052.34-.1.419-.145h.198v1.63c-.25.066-.517.117-.798.155-.282.037-.627.056-1.036.056M39.117 5.04h-.191c-.088-.03-.216-.053-.383-.07-.167-.016-.352-.022-.554-.022-.242 0-.495.035-.761.105-.267.07-.525.154-.775.25v4.96h-2.31V2.856h2.31v1.062c.105-.096.251-.218.438-.366.186-.148.357-.264.512-.353.167-.101.36-.187.583-.26.222-.073.432-.109.63-.109.075 0 .159.003.25.007.093.004.176.01.251.02V5.04zM47.827 10.264h-2.309v-.818c-.4.334-.768.588-1.102.762-.334.173-.732.26-1.193.26-.735 0-1.307-.231-1.719-.696-.412-.464-.617-1.161-.617-2.094V2.857h2.322V6.53c0 .383.01.695.03.937.02.242.067.446.142.613.07.155.178.27.326.35.147.08.353.119.617.119.163 0 .355-.04.577-.119.222-.08.428-.187.617-.323v-5.25h2.309v7.407zM56.45 10.264L49.973 10.264 49.973 8.74 53.509 4.591 50.131 4.591 50.131 2.857 56.378 2.857 56.378 4.354 52.836 8.496 56.45 8.496zM58.59 10.264h2.308V2.857H58.59v7.407zm-.067-8.463h2.441V0h-2.44v1.8zM68.354 6.577c0-.44-.036-.806-.109-1.099-.073-.292-.172-.527-.3-.702-.136-.185-.29-.313-.461-.386-.172-.073-.368-.109-.588-.109-.207 0-.394.032-.56.096-.168.064-.322.185-.463.366-.131.171-.237.407-.316.706-.079.3-.118.675-.118 1.128 0 .452.037.819.112 1.098.074.28.171.502.29.67.123.171.277.296.461.375.185.08.39.12.614.12.185 0 .372-.04.564-.12.19-.079.344-.197.459-.356.136-.188.24-.416.31-.682.07-.267.105-.634.105-1.105m2.368-.014c0 1.218-.333 2.178-1 2.88-.666.702-1.608 1.052-2.826 1.052-1.21 0-2.149-.35-2.82-1.052-.67-.702-1.006-1.662-1.006-2.88 0-1.23.336-2.195 1.007-2.892.67-.697 1.61-1.046 2.819-1.046 1.214 0 2.155.35 2.823 1.052.669.702 1.003 1.664 1.003 2.886M79.834 10.264h-2.322V6.589c0-.298-.013-.597-.036-.893-.024-.297-.07-.516-.136-.656-.079-.168-.194-.287-.342-.36-.15-.072-.35-.108-.6-.108-.19 0-.381.035-.575.105-.193.07-.4.182-.62.336v5.25h-2.309V2.858h2.31v.817c.377-.32.745-.57 1.104-.751.359-.181.755-.271 1.19-.271.757 0 1.335.239 1.735.716.4.477.6 1.168.6 2.074v4.822zM82.488 10.264h2.308V2.857h-2.308v7.407zm-.067-8.463h2.44V0h-2.44v1.8zM97.123 6.478L96.12 3.239l-1.003 3.239h2.005zm-5.633 3.786L94.808.443h2.69l3.319 9.82h-2.54l-.613-2.005h-3.088l-.613 2.006H91.49zM109.545 10.264h-2.322V6.589c0-.298-.013-.597-.036-.893-.024-.297-.07-.516-.135-.656-.08-.168-.195-.287-.343-.36-.15-.072-.35-.108-.6-.108-.19 0-.381.035-.575.105-.193.07-.4.182-.62.336v5.25h-2.308V2.858h2.309v.817c.378-.32.745-.57 1.104-.751.359-.181.756-.271 1.19-.271.757 0 1.335.239 1.736.716.4.477.6 1.168.6 2.074v4.822zM115.035 10.409c-.94 0-1.626-.193-2.055-.58-.428-.388-.642-1.02-.642-1.9V4.465h-.884v-1.61h.884V.74h2.308v2.118h2.223v1.609h-2.223V7.09c0 .26.003.486.007.68.004.193.04.367.105.52.062.155.17.277.327.367.155.09.383.135.682.135.124 0 .285-.026.485-.08.2-.052.34-.1.419-.145h.198v1.63c-.25.066-.517.117-.798.155-.28.037-.627.056-1.036.056M123.5 6.577c0-.44-.036-.806-.108-1.099-.073-.292-.173-.527-.3-.702-.137-.185-.29-.313-.462-.386-.171-.073-.367-.109-.588-.109-.207 0-.392.032-.56.096-.167.064-.321.185-.462.366-.132.171-.237.407-.317.706-.078.3-.118.675-.118 1.128 0 .452.037.819.112 1.098.076.28.172.502.29.67.123.171.278.296.462.375.185.08.389.12.614.12.185 0 .372-.04.564-.12.19-.079.343-.197.458-.356.136-.188.24-.416.31-.682.07-.267.105-.634.105-1.105m2.369-.014c0 1.218-.334 2.178-1 2.88-.666.702-1.608 1.052-2.827 1.052-1.209 0-2.148-.35-2.819-1.052-.67-.702-1.006-1.662-1.006-2.88 0-1.23.336-2.195 1.006-2.892.67-.697 1.61-1.046 2.82-1.046 1.213 0 2.154.35 2.823 1.052.668.702 1.003 1.664 1.003 2.886M134.98 10.264h-2.322V6.589c0-.298-.012-.597-.036-.893-.024-.297-.07-.516-.135-.656-.08-.168-.194-.287-.343-.36-.15-.072-.35-.108-.6-.108-.19 0-.381.035-.574.105-.194.07-.4.182-.62.336v5.25h-2.31V2.858h2.31v.817c.378-.32.745-.57 1.104-.751.36-.181.756-.271 1.19-.271.757 0 1.336.239 1.736.716.4.477.6 1.168.6 2.074v4.822zM137.635 10.264h2.308V2.857h-2.308v7.407zm-.067-8.463h2.44V0h-2.44v1.8zM147.399 6.577c0-.44-.036-.806-.109-1.099-.073-.292-.172-.527-.3-.702-.137-.185-.29-.313-.462-.386-.171-.073-.367-.109-.587-.109-.207 0-.393.032-.56.096-.168.064-.322.185-.463.366-.131.171-.237.407-.316.706-.079.3-.118.675-.118 1.128 0 .452.037.819.112 1.098.075.28.171.502.29.67.123.171.277.296.461.375.185.08.39.12.614.12.185 0 .372-.04.564-.12.19-.079.344-.197.458-.356.136-.188.24-.416.31-.682.07-.267.106-.634.106-1.105m2.368-.014c0 1.218-.333 2.178-1 2.88-.666.702-1.608 1.052-2.826 1.052-1.21 0-2.149-.35-2.82-1.052-.67-.702-1.006-1.662-1.006-2.88 0-1.23.336-2.195 1.007-2.892.67-.697 1.61-1.046 2.819-1.046 1.214 0 2.154.35 2.823 1.052.669.702 1.003 1.664 1.003 2.886M151.94 10.264L154.248 10.264 154.248.001 151.94.001zM156.962 10.264h2.308V2.857h-2.308v7.407zm-.067-8.463h2.44V0h-2.44v1.8z" transform="translate(-825 -250) translate(825 250) translate(66.687 10.55)"/>
                </g>
            </g>
        </g>
    </g>
</svg>
