<svg xmlns="http://www.w3.org/2000/svg" xmlns:xlink="http://www.w3.org/1999/xlink" width="204" height="52" viewBox="0 0 204 52">
    <defs>
        <path id="0qovgk4uua" d="M0 51.601L204 51.601 204 0.175 0 0.175z"/>
    </defs>
    <g fill="none" fill-rule="evenodd">
        <g>
            <g>
                <g>
                    <path fill="#00AD21" d="M55.199 22.931L40.591 48.434 26.37 24.121 12.78 47.927 0.164 47.927 0.164 51.987 14.212 51.987 26.37 30.162 39.169 51.987 42.657 51.987 56.969 27.151 204 27.321 204 23.085z" transform="translate(-618 -12) translate(618 12)"/>
                    <g transform="translate(-618 -12) translate(618 12) translate(0 .386)">
                        <path fill="#FFF" d="M7.552 49.07c.164 0 .326-.28.486-.28-.164 0-.326.28-.486.28"/>
                        <path d="M13.437 30.583L22.461 30.583"/>
                        <path stroke="#000" stroke-width=".5" d="M49.211 28.816L38.582 28.816M9.565 39.751L15.323 30.572M11.118 41.904L17.744 30.572M3.875 28.816L23.47 28.816"/>
                        <path stroke="#FFF" stroke-width=".5" d="M11.493 4.157L13.731.315 17.949.315 20.473.315 22.212.315 26.368 7.949 30.406.315 32.437.315 35.151.315 39.307.315 41.585 4.157 42.908 6.389 43.834 7.949 40.154 15.442 48.512 15.442 49.386 17.035M41.725 41.636L39.274 45.792 26.368 23.738 13.843 45.68 8.644 38.472 13.439 30.586 4.97 30.569 3.876 28.814.163 22.857 2.283 19.15 3.489 17.035 4.404 15.437 13.394 15.442 9.21 8.089 10.012 6.709 11.493 4.163M39.593 30.569L43.834 38.046 42.908 39.616 41.725 41.63M49.392 17.035L50.553 19.15 52.595 22.857 48.214 30.569"/>
                        <path stroke="#FFF" stroke-width=".5" d="M39.307.315L30.49 15.442 29.559 17.035 28.331 19.15 26.379 22.493 24.332 18.903 23.148 16.827 22.161 15.094 13.731.315M13.395 15.442L14.326 17.035 15.571 19.15 17.741 22.857M40.154 15.442L37.872 15.442 35.151 15.442 30.49 15.442"/>
                        <path stroke="#FFF" stroke-width=".5" d="M26.368 7.949L25.734 9.026 24.332 11.404 22.161 15.094M52.595 22.857L35.151 22.857 33.497 22.857 31.006 22.857 26.379 22.857 26.368 22.857 22.161 22.857 19.385 22.857 17.742 22.857.163 22.857M48.214 30.569L39.594 30.569 35.151 22.857M11.493 4.157L11.493 4.163 22.161 22.857M10.012 6.709L19.385 22.857M24.332 11.404L17.949.315M20.473.315L25.566 8.93M32.436.315L23.148 16.827M35.151.315L24.332 18.903M41.585 4.157L35.151 15.442M42.908 6.389L37.872 15.442M49.392 17.035L49.387 17.035 29.559 17.035M50.553 19.15L28.331 19.15M33.497 22.857L42.908 39.616M31.006 22.857L41.725 41.63 41.725 41.635M2.283 19.15L15.571 19.15M3.489 17.035L14.326 17.035"/>
                        <path fill="#6FD543" d="M17.615 46.578L26.37 31.055 35.49 46.578 33.519 46.578 26.37 33.995 19.386 46.578z"/>
                        <path fill="#B4E82D" d="M19.983 46.578L26.379 35.162 33.065 46.578 31.264 46.578 26.379 38.075 21.644 46.578z"/>
                        <mask id="jbb14oiaob" fill="#fff">
                            <use xlink:href="#0qovgk4uua"/>
                        </mask>
                        <path stroke="#FFF" stroke-width=".5" d="M50.281 26.764l-12.878.001 12.878-.001zM24.568 26.765L2.676 26.757M49.211 28.816L38.582 28.816 37.402 26.765M3.876 28.815L23.47 28.814M18.638 28.814L11.118 41.904M16.46 28.814L9.706 39.943" mask="url(#jbb14oiaob)"/>
                    </g>
                </g>
                <path fill="#FFF" d="M64.545 18.964c-1.33 0-2.386-.402-3.168-1.206-.782-.804-1.173-1.935-1.173-3.391 0-1.406.392-2.526 1.176-3.362.784-.836 1.841-1.254 3.171-1.254.353 0 .671.02.953.06.281.04.551.095.81.167.202.06.423.14.661.244.238.103.43.193.577.268v2.114h-.226c-.107-.096-.242-.21-.405-.343-.163-.133-.348-.263-.553-.39-.207-.127-.435-.235-.683-.324-.248-.09-.506-.134-.776-.134-.322 0-.617.05-.885.152-.268.101-.523.276-.765.526-.222.227-.404.533-.545.918-.14.384-.212.84-.212 1.364 0 .55.074 1.015.22 1.39.148.375.34.678.578.908.23.223.487.383.772.482.283.1.566.15.848.15.294 0 .574-.049.84-.147.265-.097.49-.205.673-.324.198-.123.373-.248.524-.375.15-.128.282-.24.393-.34h.202v2.084l-.565.26c-.215.097-.435.179-.661.247-.279.083-.538.146-.78.19-.242.044-.576.066-1 .066M73.879 15.462c0-.397-.033-.727-.099-.991-.065-.264-.155-.476-.27-.635-.124-.166-.262-.282-.417-.348-.155-.065-.332-.098-.53-.098-.187 0-.356.029-.507.087-.15.057-.29.167-.417.33-.119.154-.214.367-.286.637-.07.27-.106.61-.106 1.018 0 .409.033.74.101.992.067.252.155.453.262.604.11.155.25.268.416.34.167.071.352.107.555.107.167 0 .336-.036.509-.107.172-.072.31-.179.414-.322.122-.17.216-.376.28-.616.063-.24.095-.572.095-.998m2.138-.012c0 1.1-.301 1.966-.903 2.6-.601.633-1.452.95-2.552.95-1.091 0-1.94-.317-2.545-.95-.606-.634-.908-1.5-.908-2.6 0-1.111.302-1.982.908-2.61.605-.63 1.454-.945 2.545-.945 1.096 0 1.946.316 2.55.95.603.633.905 1.501.905 2.605M80.014 18.976c-.492 0-.958-.054-1.396-.161-.439-.108-.801-.233-1.087-.375v-1.763h.173c.1.075.212.158.34.25.127.092.303.187.53.286.193.092.413.17.658.235.244.066.509.098.795.098.293 0 .552-.045.776-.137.224-.091.337-.235.337-.434 0-.155-.052-.272-.155-.352-.103-.079-.304-.154-.602-.226-.158-.04-.359-.082-.601-.128-.242-.045-.457-.098-.643-.158-.524-.163-.918-.404-1.182-.723-.264-.32-.396-.74-.396-1.26 0-.297.068-.578.206-.842.136-.265.338-.5.604-.706.265-.202.595-.363.986-.482.39-.12.832-.18 1.324-.18.468 0 .9.048 1.292.141.394.093.725.205.995.336v1.692h-.167c-.07-.056-.184-.13-.339-.224-.155-.093-.306-.173-.453-.24-.174-.08-.37-.146-.586-.197-.217-.052-.438-.078-.664-.078-.302 0-.557.052-.765.155-.209.103-.313.24-.313.41 0 .152.051.271.155.358.103.087.327.173.672.256.18.044.385.086.617.128.233.042.456.099.67.17.48.155.845.382 1.093.682.248.3.372.697.372 1.194 0 .313-.074.612-.22.896-.147.283-.356.523-.626.718-.286.21-.622.372-1.01.488-.386.115-.85.173-1.39.173M87.668 18.922c-.85 0-1.468-.175-1.855-.524-.386-.35-.58-.921-.58-1.715v-3.126h-.798v-1.453h.798v-1.912h2.084v1.912h2.007v1.453h-2.007v2.37c0 .234.002.439.006.613.004.175.036.332.095.47.056.14.154.25.295.331.14.081.346.122.616.122.112 0 .257-.024.438-.072.18-.047.307-.091.378-.13h.179v1.47c-.226.06-.467.106-.72.14-.255.034-.567.051-.936.051M95.52 14.075h-.174c-.08-.028-.194-.048-.345-.063-.151-.014-.318-.02-.5-.02-.219 0-.448.032-.688.095-.24.063-.473.139-.7.226v4.478H91.03v-6.687h2.085v.958c.095-.086.227-.197.395-.33.169-.134.323-.239.462-.319.151-.091.326-.17.527-.235.2-.065.39-.098.568-.098.068 0 .144.002.227.006.084.004.158.01.226.018v1.97zM103.382 18.791h-2.084v-.739c-.361.302-.694.532-.995.689-.302.156-.66.234-1.078.234-.663 0-1.18-.208-1.55-.628-.373-.419-.558-1.048-.558-1.89v-4.353h2.096v3.316c0 .346.01.628.027.846.018.218.06.403.128.554.063.14.162.244.295.315.133.072.319.108.557.108.146 0 .32-.036.52-.108.201-.071.387-.169.558-.291v-4.74h2.084v6.687zM111.167 18.791L105.319 18.791 105.319 17.415 108.512 13.67 105.463 13.67 105.463 12.104 111.102 12.104 111.102 13.455 107.904 17.195 111.167 17.195zM113.099 18.791h2.084v-6.687h-2.084v6.687zm-.06-7.64h2.203V9.525h-2.203v1.626zM121.914 15.462c0-.397-.033-.727-.098-.991-.066-.264-.156-.476-.271-.635-.124-.166-.262-.282-.417-.348-.155-.065-.332-.098-.53-.098-.187 0-.356.029-.507.087-.15.057-.29.167-.417.33-.118.154-.214.367-.285.637-.071.27-.107.61-.107 1.018 0 .409.033.74.101.992.067.252.155.453.262.604.111.155.25.268.417.34.167.071.351.107.554.107.167 0 .336-.036.509-.107.172-.072.31-.179.414-.322.123-.17.216-.376.28-.616.063-.24.095-.572.095-.998m2.138-.012c0 1.1-.301 1.966-.903 2.6-.6.633-1.452.95-2.551.95-1.092 0-1.94-.317-2.546-.95-.606-.634-.908-1.5-.908-2.6 0-1.111.302-1.982.908-2.61.606-.63 1.454-.945 2.546-.945 1.096 0 1.945.316 2.548.95.604.633.906 1.501.906 2.605M132.278 18.791h-2.096v-3.317c0-.27-.012-.54-.033-.807-.022-.268-.063-.465-.122-.592-.072-.152-.176-.26-.31-.325-.135-.065-.315-.098-.542-.098-.17 0-.343.032-.518.095-.174.064-.361.165-.56.304v4.74h-2.084v-6.687h2.085v.738c.34-.29.673-.515.997-.679.324-.163.682-.244 1.074-.244.683 0 1.205.215 1.567.646.361.43.542 1.055.542 1.873v4.353zM134.674 18.791h2.084v-6.687h-2.084v6.687zm-.06-7.64h2.203V9.525h-2.203v1.626zM147.886 15.373l-.905-2.924-.905 2.924h1.81zm-5.085 3.418l2.995-8.866h2.43l2.995 8.866h-2.293l-.553-1.81h-2.788l-.553 1.81H142.8zM159.1 18.791h-2.095v-3.317c0-.27-.012-.54-.033-.807-.021-.268-.063-.465-.122-.592-.072-.152-.175-.26-.31-.325-.134-.065-.315-.098-.542-.098-.17 0-.343.032-.518.095-.174.064-.361.165-.56.304v4.74h-2.084v-6.687h2.085v.738c.341-.29.673-.515.997-.679.324-.163.682-.244 1.074-.244.683 0 1.206.215 1.567.646.361.43.542 1.055.542 1.873v4.353zM164.058 18.922c-.85 0-1.469-.175-1.856-.524-.386-.35-.58-.921-.58-1.715v-3.126h-.798v-1.453h.798v-1.912h2.084v1.912h2.007v1.453h-2.007v2.37c0 .234.002.439.006.613.004.175.036.332.096.47.055.14.153.25.294.331.14.081.347.122.616.122.112 0 .257-.024.438-.072.181-.047.307-.091.378-.13h.18v1.47c-.227.06-.467.106-.721.14-.254.034-.567.051-.935.051M173.838 15.45c0 1.1-.301 1.966-.903 2.6-.601.633-1.452.95-2.552.95-1.091 0-1.94-.317-2.545-.95-.605-.634-.908-1.5-.908-2.6 0-1.111.303-1.982.908-2.61.606-.63 1.454-.945 2.545-.945 1.097 0 1.946.316 2.55.95.603.633.905 1.501.905 2.605" transform="translate(-618 -12) translate(618 12)"/>
                <path fill="#1A171B" d="M171.7 15.462c0-.397-.033-.727-.098-.991-.066-.264-.156-.476-.271-.635-.124-.166-.262-.282-.417-.348-.155-.065-.332-.098-.53-.098-.187 0-.355.029-.507.087-.15.057-.29.167-.417.33-.118.154-.214.367-.285.637-.071.27-.107.61-.107 1.018 0 .409.033.74.101.992s.155.453.262.604c.111.155.25.268.417.34.167.071.351.107.554.107.167 0 .336-.036.509-.107.172-.072.31-.179.414-.322.123-.17.216-.376.28-.616.063-.24.095-.572.095-.998" transform="translate(-618 -12) translate(618 12)"/>
                <path fill="#FFF" d="M182.064 18.791h-2.097v-3.317c0-.27-.01-.54-.032-.807-.022-.268-.063-.465-.122-.592-.072-.152-.176-.26-.31-.325-.135-.065-.315-.098-.542-.098-.17 0-.343.032-.518.095-.175.064-.361.165-.56.304v4.74H175.8v-6.687h2.085v.738c.341-.29.673-.515.997-.679.324-.163.682-.244 1.074-.244.683 0 1.205.215 1.567.646.361.43.542 1.055.542 1.873v4.353zM184.46 18.791h2.084v-6.687h-2.084v6.687zm-.06-7.64h2.204V9.525H184.4v1.626zM193.275 15.462c0-.397-.033-.727-.098-.991-.066-.264-.156-.476-.27-.635-.124-.166-.263-.282-.418-.348-.154-.065-.331-.098-.53-.098-.187 0-.355.029-.506.087-.151.057-.29.167-.417.33-.12.154-.214.367-.286.637-.07.27-.107.61-.107 1.018 0 .409.034.74.102.992.067.252.154.453.261.604.111.155.25.268.417.34.167.071.351.107.554.107.167 0 .336-.036.51-.107.172-.072.31-.179.413-.322.123-.17.217-.376.28-.616.063-.24.095-.572.095-.998m2.138-.012c0 1.1-.3 1.966-.902 2.6-.602.633-1.452.95-2.552.95-1.092 0-1.94-.317-2.545-.95-.605-.634-.909-1.5-.909-2.6 0-1.111.304-1.982.909-2.61.605-.63 1.453-.945 2.545-.945 1.096 0 1.945.316 2.549.95.603.633.905 1.501.905 2.605M197.375 18.791L199.459 18.791 199.459 9.526 197.375 9.526zM201.908 18.791h2.084v-6.687h-2.084v6.687zm-.06-7.64h2.204V9.525h-2.204v1.626z" transform="translate(-618 -12) translate(618 12)"/>
            </g>
        </g>
    </g>
</svg>
